<?xml version="1.0" standalone="no"?>
<!DOCTYPE svg PUBLIC "-//W3C//DTD SVG 20010904//EN"
 "http://www.w3.org/TR/2001/REC-SVG-20010904/DTD/svg10.dtd">
<svg version="1.0" xmlns="http://www.w3.org/2000/svg"
 width="220.000000pt" height="220.000000pt" viewBox="0 0 220.000000 220.000000"
 preserveAspectRatio="xMidYMid meet">
<metadata>
Created by potrace 1.14, written by Peter Selinger 2001-2017
</metadata>
<g transform="translate(0.000000,220.000000) scale(0.100000,-0.100000)"
fill="#000000" stroke="none">
<path d="M1698 2190 c-15 -9 -15 -14 -2 -45 37 -88 30 -112 -274 -1015 -240
-713 -312 -920 -322 -920 -11 0 -265 873 -263 904 3 40 28 63 74 71 33 6 39
11 39 31 l0 24 -265 0 -265 0 0 -24 c0 -23 2 -24 103 -28 120 -4 145 -15 178
-81 24 -45 295 -917 305 -979 4 -23 1 -47 -9 -67 -15 -29 -14 -32 6 -46 46
-32 110 -7 143 58 36 68 185 481 349 962 95 281 205 599 244 708 l71 198 0
113 c0 97 -3 115 -18 129 -21 19 -68 22 -94 7z"/>
<path d="M595 1731 c-105 -47 -143 -172 -81 -264 62 -91 183 -110 266 -41 104
88 80 249 -45 305 -51 23 -89 23 -140 0z"/>
</g>
</svg>
